<svg xmlns="http://www.w3.org/2000/svg"><symbol id="mecha-stilts" viewBox="0 0 256 256"><path d="M139.2 157.8h21.5v13.24h-21.5zm-18.1 0h13.8v13.24h-13.8zm43.9 0h13.8v13.24H165zm-87.7 0h13.8v13.24H77.3zm18 0h21.5v13.24H95.3z"/><path d="M128 0L14.7 64v128L128 256l113.3-64V64zm67.9 155.7a2 2 0 0 1-2.1 2.1H183v13.3h10.8a2.3 2.3 0 0 1 2.1 2.1 2.3 2.3 0 0 1-2.1 2.1H62.2a2.3 2.3 0 0 1-2.1-2.1 2.3 2.3 0 0 1 2.1-2.1H73v-13.3H62.2a1.9 1.9 0 0 1-2.1-2.1v-41.4a2 2 0 0 1 2.1-2.1h14.2C77.5 82.4 100.3 66 128 66s50.5 16.4 51.6 46.2h14.2a2.1 2.1 0 0 1 2.1 2.1z"/><path d="M128 70.2c-25.1 0-46.2 14.9-47.3 42h94.6c-1.1-27.1-22.2-42-47.3-42zm-63.6 83.4h127.2v-37.2H64.4zm62.5-14.3h52.5a2.2 2.2 0 0 1 0 4.3h-52.5a2.2 2.2 0 0 1 0-4.3z"/></symbol><symbol id="space-bubbles" viewBox="0 0 256 256"><path d="M96.6 149.9H82.4l-18.9 21.8 3 4.2 36.4-18.7-6.3-7.3zm5.6 0l18.1 21.2h15.4l18.1-21.2h-51.6zm70.9-19.4a50.1 50.1 0 0 0 2.6-16c0-25-20.8-45.4-46.4-45.4s-46.6 20.4-46.6 45.4c0 5.5.4 11.2 2.5 16zm-102.7 4.2h117.5v10.93H70.4zm15 36.4h29.3l-8.8-10.5-20.5 10.5z"/><path d="M128 0L14.7 64v128L128 256l113.3-64V64zm68.8 173l-5 6.9a2.3 2.3 0 0 1-2.8.7l-10.3-5.3H77.1l-10.3 5.3a2.3 2.3 0 0 1-2.8-.7l-5-6.9a2.2 2.2 0 0 1 .2-2.5l17.9-20.6h-8.8a2.1 2.1 0 0 1-2.2-2.1v-15.2a2.1 2.1 0 0 1 2.2-2.1h12.4a57.3 57.3 0 0 1-2.3-16c0-27.1 22.7-49.6 50.9-49.6S180 87.4 180 114.5a48.2 48.2 0 0 1-2.4 16h12.5a2.1 2.1 0 0 1 2.2 2.1v15.2a2.1 2.1 0 0 1-2.2 2.1h-11l17.7 20.6a2.3 2.3 0 0 1 0 2.5z"/><path d="M159.4 149.9l-6.5 7.3 36.6 18.7 3-4-18.9-22h-14.2zm-18.1 21.2h29.2l-20.4-10.5-8.8 10.5z"/></symbol><symbol id="super-domes" viewBox="0 0 256 256"><path d="M125.8 127.8V85.3l-30.9 42.5h30.9zm4.3 20h9.7v23.33h-9.7zm0-66.9v46.9h59.4c-6.7-26.1-30.8-45.8-59.4-46.9zm-6.4.2a63.5 63.5 0 0 0-57.2 46.7h23zM68 147.8h57.8v23.33H68z"/><path d="M128 0L14.7 64v128L128 256l113.3-64V64zm92.6 147.8h-28.4v25.4a1.9 1.9 0 0 1-2.1 2.1H65.9a2 2 0 0 1-2.2-2.1v-25.4H35.4a2.4 2.4 0 0 1-2.2-2.1 2.3 2.3 0 0 1 2.2-2.1h16.1v-13.7a2 2 0 0 1 2.1-2.1H62c7.1-29.2 34-50.9 65.8-51.1.2-.2.4-.2.8 0 31.8.2 58.3 22.1 65.4 51.1h8.4a2 2 0 0 1 2.1 2.1v13.7h16.1a2.3 2.3 0 0 1 2.2 2.1 2.4 2.4 0 0 1-2.2 2.1z"/><path d="M144.1 147.8h43.8v23.33h-43.8zM55.8 132h144.4v11.56H55.8z"/></symbol></svg>