<svg xmlns="http://www.w3.org/2000/svg"><symbol id="mecha-stilts" viewBox="0 0 160 189"><path d="M80 0l80 47.3v94.5L80 189 0 141.8V47.3L80 0z"/><path fill="#fff" d="M33.6 129.4a1.6 1.6 0 0 1-1.5-1.5 1.6 1.6 0 0 1 1.5-1.6h7.6v-9.8h-7.6a1.4 1.4 0 0 1-1.5-1.5V84.4a1.4 1.4 0 0 1 1.5-1.5h10c.7-22.1 16.8-34.2 36.4-34.2s35.6 12.1 36.4 34.2h10a1.4 1.4 0 0 1 1.5 1.5V115a1.4 1.4 0 0 1-1.5 1.5h-7.6v9.8h7.6a1.6 1.6 0 0 1 1.5 1.6 1.6 1.6 0 0 1-1.5 1.5zM35.1 86v27.4h89.8V86zm9.1 30.5v9.8h9.7v-9.8zm2.4-33.6h66.8c-.8-20.1-15.7-31.1-33.4-31.1s-32.6 11-33.4 31.1zm10.3 33.6v9.8h15.2v-9.8zm18.2 0v9.8h9.8v-9.8zm41.2-10.5H79.2a1.6 1.6 0 0 1 0-3.1h37.1a1.6 1.6 0 0 1 0 3.1zm-28.4 10.5v9.8h15.2v-9.8zm18.2 0v9.8h9.7v-9.8z"/></symbol><symbol id="space-bubbles" viewBox="0 0 160 189"><path d="M80 0l80 47.3v94.5L80 189 0 141.8V47.3L80 0z"/><path fill="#fff" d="M34.8 132.8l-3.5-5.1a1.8 1.8 0 0 1 .1-1.9L44 110.6h-6.2a1.4 1.4 0 0 1-1.5-1.5V97.9a1.4 1.4 0 0 1 1.5-1.5h8.8A47.9 47.9 0 0 1 45 84.6c0-20.1 16-36.7 35.9-36.7s35.8 16.6 35.8 36.7a37.1 37.1 0 0 1-1.7 11.8h8.8a1.4 1.4 0 0 1 1.6 1.5v11.2a1.4 1.4 0 0 1-1.6 1.5h-7.7l12.4 15.2a1.7 1.7 0 0 1 0 1.9l-3.4 5.1a1.6 1.6 0 0 1-2 .5l-7.3-3.9H44l-7.2 3.9a1.6 1.6 0 0 1-2-.5zm23-22.2h-10l-13.3 16.2 2.1 3.1 25.6-13.8zM39.3 99.5v8h83v-8zm10.5-3.1h62.1a39.3 39.3 0 0 0 1.8-11.8C113.7 66.1 99 51 80.9 51S48 66.1 48 84.6c0 4 .3 8.2 1.8 11.8zm14.6 22.2L50 126.3h20.6zm-2.6-8l12.7 15.7h11l12.7-15.7zm33.8 8l-6.2 7.7H110zm16.6-8h-10.1l-4.5 5.5 25.8 13.8 2.1-3z"/></symbol><symbol id="super-domes" viewBox="0 0 160 189"><path d="M80 0l80 47.3v94.5L80 189 0 141.8V47.3L80 0z"/><path fill="#fff" d="M36.2 129.4a1.4 1.4 0 0 1-1.6-1.5v-18.8h-20a1.6 1.6 0 0 1-1.5-1.6 1.6 1.6 0 0 1 1.5-1.5H26V95.9a1.5 1.5 0 0 1 1.5-1.6h5.9c5-21.5 24-37.5 46.4-37.7.2-.1.3-.1.7 0 22.4.2 41.1 16.3 46.1 37.7h5.9a1.5 1.5 0 0 1 1.5 1.6V106h11.4a1.6 1.6 0 0 1 0 3.1h-20v18.8a1.4 1.4 0 0 1-1.6 1.5zm-7.2-32v8.6h102v-8.6zm48-37.5c-19.5 1.2-35.7 15.7-40.4 34.4h16.2zm-39.3 49.2v17.2h40.8v-17.2zM78.5 63L56.6 94.3h21.9zm3-3.3v34.6h41.9c-4.7-19.2-21.7-33.8-41.9-34.6zm0 49.4v17.2h6.8v-17.2zm9.9 0v17.2h30.9v-17.2z"/></symbol></svg>